<svg width="79" height="80" viewBox="0 0 79 80" fill="none" xmlns="http://www.w3.org/2000/svg">
<path d="M39.6812 79.3763C61.2903 79.3763 78.8079 61.6073 78.8079 39.6881C78.8079 17.769 61.2903 0 39.6812 0C18.0721 0 0.554474 17.769 0.554474 39.6881C0.554474 61.6073 18.0721 79.3763 39.6812 79.3763Z" fill="#00BFA6"/>
<path d="M56.1953 58.3799H23.776C23.1832 58.3793 22.6149 58.1401 22.1957 57.7149C21.7765 57.2898 21.5408 56.7133 21.5402 56.112V36.2679C21.5409 35.6666 21.7766 35.0901 22.1958 34.665C22.6149 34.2398 23.1833 34.0006 23.776 34H56.1953C56.7881 34.0006 57.3564 34.2398 57.7755 34.665C58.1947 35.0901 58.4305 35.6666 58.4311 36.2679V56.1119C58.4305 56.7132 58.1947 57.2898 57.7756 57.7149C57.3564 58.1401 56.7881 58.3793 56.1953 58.3799ZM23.776 36.2679V56.112H56.1969L56.1953 36.2679L23.776 36.2679Z" fill="white"/>
<path d="M49.7423 34.8688H29.62V25.7972C29.62 19.2267 33.8514 14.4578 39.6811 14.4578C45.5108 14.4578 49.7423 19.2267 49.7423 25.7972L49.7423 34.8688ZM31.8558 32.6009H47.5065V25.7972C47.5065 20.4561 44.2887 16.7257 39.6812 16.7257C35.0737 16.7257 31.8558 20.4561 31.8558 25.7972L31.8558 32.6009Z" fill="white"/>
<path d="M49.7423 34.8688H29.62V25.7972C29.62 19.2267 33.8514 14.4578 39.6811 14.4578C45.5108 14.4578 49.7423 19.2267 49.7423 25.7972L49.7423 34.8688ZM31.8558 32.6009H47.5065V25.7972C47.5065 20.4561 44.2887 16.7257 39.6812 16.7257C35.0737 16.7257 31.8558 20.4561 31.8558 25.7972L31.8558 32.6009Z" fill="white"/>
<path d="M39.6812 46.4918C40.916 46.4918 41.917 45.4765 41.917 44.2239C41.917 42.9714 40.916 41.9561 39.6812 41.9561C38.4464 41.9561 37.4454 42.9714 37.4454 44.2239C37.4454 45.4765 38.4464 46.4918 39.6812 46.4918Z" fill="white"/>
</svg>
